<?xml version="1.0" encoding="UTF-8"?>
<svg xmlns="http://www.w3.org/2000/svg" xmlns:xlink="http://www.w3.org/1999/xlink" width="4000" height="4000" viewBox="0 0 4000 4000">
<defs>
<clipPath id="clip-0">
<path clip-rule="nonzero" d="M 1153 1912 L 1902 1912 L 1902 2527 L 1153 2527 Z M 1153 1912 "/>
</clipPath>
<clipPath id="clip-1">
<path clip-rule="nonzero" d="M 1901.699219 1935.488281 C 1901.550781 1940.128906 1901.398438 1944.691406 1900.949219 1949.25 C 1900.878906 1951.570312 1900.5 1953.890625 1900.199219 1956.140625 C 1899.980469 1958.148438 1899.679688 1960.019531 1899.378906 1961.890625 C 1899.160156 1963.539062 1898.859375 1965.261719 1898.558594 1966.828125 C 1898.109375 1968.769531 1897.738281 1970.871094 1897.289062 1972.890625 C 1895.640625 1980.890625 1893.320312 1988.738281 1890.710938 1996.300781 C 1889.359375 2000.191406 1887.941406 2003.929688 1886.371094 2007.589844 C 1885.46875 2009.609375 1884.648438 2011.480469 1883.820312 2013.351562 C 1878.210938 2025.621094 1871.628906 2036.910156 1864.449219 2046.859375 C 1862.878906 2048.949219 1861.011719 2051.191406 1859.289062 2053.289062 C 1856.078125 2057.398438 1852.558594 2060.988281 1848.75 2064.808594 C 1845.230469 2068.320312 1841.871094 2071.460938 1838.128906 2074.679688 C 1837.011719 2075.800781 1835.660156 2076.851562 1834.390625 2077.890625 C 1829.449219 2082.078125 1824.140625 2085.820312 1818.761719 2089.640625 C 1816.890625 2090.761719 1814.941406 2091.878906 1813.070312 2093.078125 C 1811.199219 2094.199219 1809.328125 2095.320312 1807.539062 2096.371094 C 1805 2097.859375 1802.378906 2099.210938 1799.609375 2100.480469 C 1794.519531 2103.171875 1789.21875 2105.488281 1783.761719 2107.660156 C 1781.058594 2108.710938 1778.371094 2109.609375 1775.53125 2110.578125 C 1764.980469 2114.089844 1754.058594 2116.859375 1742.921875 2118.5 L 1742.769531 2118.5 C 1739.628906 2119.03125 1736.640625 2119.328125 1733.5 2119.628906 C 1730.351562 2119.929688 1727.210938 2120.148438 1724 2120.378906 L 1723.921875 2120.378906 C 1723.25 2120.449219 1722.730469 2120.449219 1722.128906 2120.449219 C 1719.511719 2120.671875 1716.890625 2120.671875 1714.421875 2120.671875 L 1493.421875 2120.671875 C 1384 2123.890625 1296.351562 2213.789062 1296.351562 2323.800781 L 1296.351562 2330.011719 L 1296.050781 2330.609375 C 1296.570312 2347.289062 1299.039062 2363.371094 1303.378906 2378.78125 C 1312.949219 2412.730469 1331.421875 2443.390625 1355.730469 2467.699219 C 1389.609375 2501.28125 1435.230469 2523.269531 1486.171875 2526.558594 C 1341.449219 2519.75 1158.128906 2410.859375 1153.421875 2249.539062 C 1150.578125 2155.75 1210.710938 2069.96875 1282.058594 2014.46875 C 1308.691406 1993.75 1338.148438 1976.398438 1369.488281 1963.539062 C 1388.710938 1955.609375 1408.53125 1949.25 1429.019531 1944.621094 C 1441.960938 1941.78125 1455.28125 1939.460938 1468.589844 1938.109375 C 1476.820312 1937.140625 1485.191406 1936.46875 1493.640625 1935.941406 C 1493.871094 1935.941406 1493.871094 1935.941406 1493.871094 1935.941406 C 1495.960938 1935.71875 1498.351562 1935.71875 1500.449219 1935.71875 L 1487.808594 1935.71875 C 1489.898438 1935.488281 1492.300781 1935.488281 1494.390625 1935.488281 L 1867.070312 1935.488281 C 1866.101562 1935.488281 1865.351562 1935.71875 1864.449219 1935.71875 L 1877.089844 1935.71875 C 1877.988281 1935.71875 1878.738281 1935.488281 1879.640625 1935.488281 C 1885.320312 1934.96875 1889.660156 1932.878906 1893.769531 1928.910156 C 1898.109375 1924.570312 1900.199219 1918.890625 1900.199219 1912.53125 C 1901.480469 1920.308594 1901.921875 1927.789062 1901.699219 1935.488281 Z M 1901.699219 1935.488281 "/>
</clipPath>
<clipPath id="clip-2">
<path clip-rule="nonzero" d="M 1901.699219 1935.488281 C 1901.550781 1940.128906 1901.398438 1944.691406 1900.949219 1949.25 C 1900.878906 1951.570312 1900.5 1953.890625 1900.199219 1956.140625 C 1899.980469 1958.148438 1899.679688 1960.019531 1899.378906 1961.890625 C 1899.160156 1963.539062 1898.859375 1965.261719 1898.558594 1966.828125 C 1898.109375 1968.769531 1897.738281 1970.871094 1897.289062 1972.890625 C 1895.640625 1980.890625 1893.320312 1988.738281 1890.710938 1996.300781 C 1889.359375 2000.191406 1887.941406 2003.929688 1886.371094 2007.589844 C 1885.46875 2009.609375 1884.648438 2011.480469 1883.820312 2013.351562 C 1878.210938 2025.621094 1871.628906 2036.910156 1864.449219 2046.859375 C 1862.878906 2048.949219 1861.011719 2051.191406 1859.289062 2053.289062 C 1856.078125 2057.398438 1852.558594 2060.988281 1848.75 2064.808594 C 1845.230469 2068.320312 1841.871094 2071.460938 1838.128906 2074.679688 C 1837.011719 2075.800781 1835.660156 2076.851562 1834.390625 2077.890625 C 1829.449219 2082.078125 1824.140625 2085.820312 1818.761719 2089.640625 C 1816.890625 2090.761719 1814.941406 2091.878906 1813.070312 2093.078125 C 1811.199219 2094.199219 1809.328125 2095.320312 1807.539062 2096.371094 C 1805 2097.859375 1802.378906 2099.210938 1799.609375 2100.480469 C 1794.519531 2103.171875 1789.21875 2105.488281 1783.761719 2107.660156 C 1781.058594 2108.710938 1778.371094 2109.609375 1775.53125 2110.578125 C 1764.980469 2114.089844 1754.058594 2116.859375 1742.921875 2118.5 L 1742.769531 2118.5 C 1739.628906 2119.03125 1736.640625 2119.328125 1733.5 2119.628906 C 1730.351562 2119.929688 1727.210938 2120.148438 1724 2120.378906 L 1723.921875 2120.378906 C 1723.25 2120.449219 1722.730469 2120.449219 1722.128906 2120.449219 C 1719.511719 2120.671875 1716.890625 2120.671875 1714.421875 2120.671875 L 1493.421875 2120.671875 C 1384 2123.890625 1296.351562 2213.789062 1296.351562 2323.800781 L 1296.351562 2330.011719 L 1296.050781 2330.609375 C 1296.570312 2347.289062 1299.039062 2363.371094 1303.378906 2378.78125 C 1312.949219 2412.730469 1331.421875 2443.390625 1355.730469 2467.699219 C 1389.609375 2501.28125 1435.230469 2523.269531 1486.171875 2526.558594 C 1341.449219 2519.75 1158.128906 2410.859375 1153.421875 2249.539062 C 1150.578125 2155.75 1210.710938 2069.96875 1282.058594 2014.46875 C 1308.691406 1993.75 1338.148438 1976.398438 1369.488281 1963.539062 C 1388.710938 1955.609375 1408.53125 1949.25 1429.019531 1944.621094 C 1441.960938 1941.78125 1455.28125 1939.460938 1468.589844 1938.109375 C 1476.820312 1937.140625 1485.191406 1936.46875 1493.640625 1935.941406 C 1493.871094 1935.941406 1493.871094 1935.941406 1493.871094 1935.941406 C 1495.960938 1935.71875 1498.351562 1935.71875 1500.449219 1935.71875 L 1487.808594 1935.71875 C 1489.898438 1935.488281 1492.300781 1935.488281 1494.390625 1935.488281 L 1867.070312 1935.488281 C 1866.101562 1935.488281 1865.351562 1935.71875 1864.449219 1935.71875 L 1877.089844 1935.71875 C 1877.988281 1935.71875 1878.738281 1935.488281 1879.640625 1935.488281 C 1885.320312 1934.96875 1889.660156 1932.878906 1893.769531 1928.910156 C 1898.109375 1924.570312 1900.199219 1918.890625 1900.199219 1912.53125 C 1901.480469 1920.308594 1901.921875 1927.789062 1901.699219 1935.488281 "/>
</clipPath>
<linearGradient id="linear-pattern-0" gradientUnits="userSpaceOnUse" x1="-0.00367437" y1="0" x2="1.000216" y2="0" gradientTransform="matrix(748.428, 0, 0, 748.428, 1153.33, 2219.55)">
<stop offset="0" stop-color="rgb(93.029785%, 7.43103%, 48.9151%)" stop-opacity="1"/>
<stop offset="0.03125" stop-color="rgb(93.028259%, 7.415771%, 48.979187%)" stop-opacity="1"/>
<stop offset="0.0390625" stop-color="rgb(92.953491%, 7.363892%, 49.053955%)" stop-opacity="1"/>
<stop offset="0.046875" stop-color="rgb(92.727661%, 7.263184%, 49.035645%)" stop-opacity="1"/>
<stop offset="0.0546875" stop-color="rgb(92.424011%, 7.176208%, 48.997498%)" stop-opacity="1"/>
<stop offset="0.0625" stop-color="rgb(92.129517%, 7.183838%, 48.99292%)" stop-opacity="1"/>
<stop offset="0.0664062" stop-color="rgb(91.772461%, 7.246399%, 48.986816%)" stop-opacity="1"/>
<stop offset="0.0703125" stop-color="rgb(91.56189%, 7.278442%, 48.974609%)" stop-opacity="1"/>
<stop offset="0.0742188" stop-color="rgb(91.268921%, 7.316589%, 48.937988%)" stop-opacity="1"/>
<stop offset="0.078125" stop-color="rgb(90.9729%, 7.35321%, 48.899841%)" stop-opacity="1"/>
<stop offset="0.0820312" stop-color="rgb(90.740967%, 7.382202%, 48.898315%)" stop-opacity="1"/>
<stop offset="0.0859375" stop-color="rgb(90.509033%, 7.41272%, 48.895264%)" stop-opacity="1"/>
<stop offset="0.09375" stop-color="rgb(90.362549%, 7.43103%, 48.944092%)" stop-opacity="1"/>
<stop offset="0.101562" stop-color="rgb(90.068054%, 7.434082%, 49.028015%)" stop-opacity="1"/>
<stop offset="0.109375" stop-color="rgb(89.767456%, 7.345581%, 49.079895%)" stop-opacity="1"/>
<stop offset="0.117188" stop-color="rgb(89.465332%, 7.235718%, 49.121094%)" stop-opacity="1"/>
<stop offset="0.125" stop-color="rgb(89.170837%, 7.217407%, 49.197388%)" stop-opacity="1"/>
<stop offset="0.128906" stop-color="rgb(88.853455%, 7.23114%, 49.282837%)" stop-opacity="1"/>
<stop offset="0.132812" stop-color="rgb(88.679504%, 7.225037%, 49.319458%)" stop-opacity="1"/>
<stop offset="0.136719" stop-color="rgb(88.456726%, 7.168579%, 49.337769%)" stop-opacity="1"/>
<stop offset="0.140625" stop-color="rgb(88.230896%, 7.112122%, 49.354553%)" stop-opacity="1"/>
<stop offset="0.144531" stop-color="rgb(87.986755%, 7.084656%, 49.368286%)" stop-opacity="1"/>
<stop offset="0.148438" stop-color="rgb(87.741089%, 7.055664%, 49.380493%)" stop-opacity="1"/>
<stop offset="0.152344" stop-color="rgb(87.452698%, 7.084656%, 49.385071%)" stop-opacity="1"/>
<stop offset="0.15625" stop-color="rgb(87.159729%, 7.115173%, 49.386597%)" stop-opacity="1"/>
<stop offset="0.160156" stop-color="rgb(86.871338%, 7.17926%, 49.401855%)" stop-opacity="1"/>
<stop offset="0.164062" stop-color="rgb(86.584473%, 7.243347%, 49.417114%)" stop-opacity="1"/>
<stop offset="0.167969" stop-color="rgb(86.299133%, 7.392883%, 49.462891%)" stop-opacity="1"/>
<stop offset="0.171875" stop-color="rgb(86.01532%, 7.542419%, 49.508667%)" stop-opacity="1"/>
<stop offset="0.175781" stop-color="rgb(85.748291%, 7.661438%, 49.555969%)" stop-opacity="1"/>
<stop offset="0.179688" stop-color="rgb(85.481262%, 7.778931%, 49.603271%)" stop-opacity="1"/>
<stop offset="0.183594" stop-color="rgb(85.263062%, 7.814026%, 49.653625%)" stop-opacity="1"/>
<stop offset="0.1875" stop-color="rgb(85.044861%, 7.849121%, 49.703979%)" stop-opacity="1"/>
<stop offset="0.191406" stop-color="rgb(84.811401%, 7.885742%, 49.732971%)" stop-opacity="1"/>
<stop offset="0.195312" stop-color="rgb(84.57489%, 7.920837%, 49.760437%)" stop-opacity="1"/>
<stop offset="0.199219" stop-color="rgb(84.288025%, 7.957458%, 49.72229%)" stop-opacity="1"/>
<stop offset="0.203125" stop-color="rgb(83.999634%, 7.995605%, 49.682617%)" stop-opacity="1"/>
<stop offset="0.207031" stop-color="rgb(83.728027%, 8.01239%, 49.656677%)" stop-opacity="1"/>
<stop offset="0.210938" stop-color="rgb(83.454895%, 8.027649%, 49.629211%)" stop-opacity="1"/>
<stop offset="0.214844" stop-color="rgb(83.233643%, 7.975769%, 49.645996%)" stop-opacity="1"/>
<stop offset="0.21875" stop-color="rgb(83.01239%, 7.923889%, 49.661255%)" stop-opacity="1"/>
<stop offset="0.222656" stop-color="rgb(82.792664%, 7.885742%, 49.674988%)" stop-opacity="1"/>
<stop offset="0.226562" stop-color="rgb(82.572937%, 7.847595%, 49.687195%)" stop-opacity="1"/>
<stop offset="0.234375" stop-color="rgb(82.359314%, 7.861328%, 49.685669%)" stop-opacity="1"/>
<stop offset="0.238281" stop-color="rgb(81.907654%, 7.894897%, 49.682617%)" stop-opacity="1"/>
<stop offset="0.242188" stop-color="rgb(81.669617%, 7.913208%, 49.681091%)" stop-opacity="1"/>
<stop offset="0.246094" stop-color="rgb(81.312561%, 7.957458%, 49.685669%)" stop-opacity="1"/>
<stop offset="0.25" stop-color="rgb(80.955505%, 8.001709%, 49.688721%)" stop-opacity="1"/>
<stop offset="0.253906" stop-color="rgb(80.610657%, 8.033752%, 49.694824%)" stop-opacity="1"/>
<stop offset="0.257812" stop-color="rgb(80.264282%, 8.06427%, 49.700928%)" stop-opacity="1"/>
<stop offset="0.261719" stop-color="rgb(79.972839%, 8.030701%, 49.719238%)" stop-opacity="1"/>
<stop offset="0.265625" stop-color="rgb(79.682922%, 7.995605%, 49.736023%)" stop-opacity="1"/>
<stop offset="0.269531" stop-color="rgb(79.393005%, 7.974243%, 49.758911%)" stop-opacity="1"/>
<stop offset="0.273438" stop-color="rgb(79.103088%, 7.951355%, 49.780273%)" stop-opacity="1"/>
<stop offset="0.277344" stop-color="rgb(78.816223%, 8.003235%, 49.832153%)" stop-opacity="1"/>
<stop offset="0.28125" stop-color="rgb(78.529358%, 8.055115%, 49.882507%)" stop-opacity="1"/>
<stop offset="0.285156" stop-color="rgb(78.242493%, 8.106995%, 49.934387%)" stop-opacity="1"/>
<stop offset="0.289062" stop-color="rgb(77.955627%, 8.158875%, 49.986267%)" stop-opacity="1"/>
<stop offset="0.292969" stop-color="rgb(77.667236%, 8.210754%, 50.036621%)" stop-opacity="1"/>
<stop offset="0.296875" stop-color="rgb(77.380371%, 8.26416%, 50.088501%)" stop-opacity="1"/>
<stop offset="0.300781" stop-color="rgb(77.093506%, 8.31604%, 50.140381%)" stop-opacity="1"/>
<stop offset="0.304688" stop-color="rgb(76.805115%, 8.369446%, 50.190735%)" stop-opacity="1"/>
<stop offset="0.308594" stop-color="rgb(76.51825%, 8.421326%, 50.242615%)" stop-opacity="1"/>
<stop offset="0.3125" stop-color="rgb(76.231384%, 8.474731%, 50.292969%)" stop-opacity="1"/>
<stop offset="0.316406" stop-color="rgb(75.942993%, 8.526611%, 50.341797%)" stop-opacity="1"/>
<stop offset="0.320312" stop-color="rgb(75.656128%, 8.580017%, 50.390625%)" stop-opacity="1"/>
<stop offset="0.324219" stop-color="rgb(75.369263%, 8.641052%, 50.401306%)" stop-opacity="1"/>
<stop offset="0.328125" stop-color="rgb(75.082397%, 8.702087%, 50.413513%)" stop-opacity="1"/>
<stop offset="0.332031" stop-color="rgb(74.795532%, 8.764648%, 50.42572%)" stop-opacity="1"/>
<stop offset="0.335938" stop-color="rgb(74.507141%, 8.827209%, 50.437927%)" stop-opacity="1"/>
<stop offset="0.339844" stop-color="rgb(74.157715%, 8.953857%, 50.474548%)" stop-opacity="1"/>
<stop offset="0.34375" stop-color="rgb(73.808289%, 9.078979%, 50.509644%)" stop-opacity="1"/>
<stop offset="0.347656" stop-color="rgb(73.460388%, 9.204102%, 50.546265%)" stop-opacity="1"/>
<stop offset="0.351562" stop-color="rgb(73.112488%, 9.329224%, 50.579834%)" stop-opacity="1"/>
<stop offset="0.355469" stop-color="rgb(72.824097%, 9.300232%, 50.596619%)" stop-opacity="1"/>
<stop offset="0.359375" stop-color="rgb(72.537231%, 9.27124%, 50.611877%)" stop-opacity="1"/>
<stop offset="0.363281" stop-color="rgb(72.24884%, 9.243774%, 50.628662%)" stop-opacity="1"/>
<stop offset="0.367188" stop-color="rgb(71.961975%, 9.216309%, 50.643921%)" stop-opacity="1"/>
<stop offset="0.371094" stop-color="rgb(71.734619%, 9.197998%, 50.709534%)" stop-opacity="1"/>
<stop offset="0.375" stop-color="rgb(71.505737%, 9.179688%, 50.772095%)" stop-opacity="1"/>
<stop offset="0.378906" stop-color="rgb(71.279907%, 9.161377%, 50.839233%)" stop-opacity="1"/>
<stop offset="0.382812" stop-color="rgb(71.052551%, 9.143066%, 50.90332%)" stop-opacity="1"/>
<stop offset="0.386719" stop-color="rgb(70.767212%, 9.196472%, 50.9552%)" stop-opacity="1"/>
<stop offset="0.390625" stop-color="rgb(70.481873%, 9.246826%, 51.004028%)" stop-opacity="1"/>
<stop offset="0.394531" stop-color="rgb(70.195007%, 9.301758%, 51.054382%)" stop-opacity="1"/>
<stop offset="0.398438" stop-color="rgb(69.906616%, 9.356689%, 51.10321%)" stop-opacity="1"/>
<stop offset="0.402344" stop-color="rgb(69.499207%, 9.423828%, 51.074219%)" stop-opacity="1"/>
<stop offset="0.40625" stop-color="rgb(69.091797%, 9.490967%, 51.043701%)" stop-opacity="1"/>
<stop offset="0.410156" stop-color="rgb(68.676758%, 9.559631%, 51.00708%)" stop-opacity="1"/>
<stop offset="0.414062" stop-color="rgb(68.260193%, 9.628296%, 50.970459%)" stop-opacity="1"/>
<stop offset="0.417969" stop-color="rgb(67.962646%, 9.683228%, 51.013184%)" stop-opacity="1"/>
<stop offset="0.421875" stop-color="rgb(67.6651%, 9.739685%, 51.054382%)" stop-opacity="1"/>
<stop offset="0.425781" stop-color="rgb(67.378235%, 9.794617%, 51.104736%)" stop-opacity="1"/>
<stop offset="0.429688" stop-color="rgb(67.09137%, 9.849548%, 51.153564%)" stop-opacity="1"/>
<stop offset="0.433594" stop-color="rgb(66.741943%, 9.992981%, 51.200867%)" stop-opacity="1"/>
<stop offset="0.4375" stop-color="rgb(66.390991%, 10.134888%, 51.249695%)" stop-opacity="1"/>
<stop offset="0.441406" stop-color="rgb(66.033936%, 10.290527%, 51.298523%)" stop-opacity="1"/>
<stop offset="0.445312" stop-color="rgb(65.673828%, 10.443115%, 51.345825%)" stop-opacity="1"/>
<stop offset="0.449219" stop-color="rgb(65.318298%, 10.464478%, 51.335144%)" stop-opacity="1"/>
<stop offset="0.453125" stop-color="rgb(64.961243%, 10.48584%, 51.322937%)" stop-opacity="1"/>
<stop offset="0.457031" stop-color="rgb(64.607239%, 10.487366%, 51.303101%)" stop-opacity="1"/>
<stop offset="0.460938" stop-color="rgb(64.251709%, 10.488892%, 51.281738%)" stop-opacity="1"/>
<stop offset="0.464844" stop-color="rgb(63.954163%, 10.466003%, 51.322937%)" stop-opacity="1"/>
<stop offset="0.46875" stop-color="rgb(63.658142%, 10.443115%, 51.36261%)" stop-opacity="1"/>
<stop offset="0.472656" stop-color="rgb(63.371277%, 10.417175%, 51.41449%)" stop-opacity="1"/>
<stop offset="0.476562" stop-color="rgb(63.085938%, 10.389709%, 51.46637%)" stop-opacity="1"/>
<stop offset="0.480469" stop-color="rgb(62.742615%, 10.450745%, 51.487732%)" stop-opacity="1"/>
<stop offset="0.484375" stop-color="rgb(62.399292%, 10.510254%, 51.507568%)" stop-opacity="1"/>
<stop offset="0.488281" stop-color="rgb(62.043762%, 10.588074%, 51.521301%)" stop-opacity="1"/>
<stop offset="0.492188" stop-color="rgb(61.686707%, 10.667419%, 51.535034%)" stop-opacity="1"/>
<stop offset="0.496094" stop-color="rgb(61.37085%, 10.749817%, 51.618958%)" stop-opacity="1"/>
<stop offset="0.5" stop-color="rgb(61.054993%, 10.830688%, 51.701355%)" stop-opacity="1"/>
<stop offset="0.503906" stop-color="rgb(60.749817%, 10.914612%, 51.805115%)" stop-opacity="1"/>
<stop offset="0.507812" stop-color="rgb(60.441589%, 10.997009%, 51.905823%)" stop-opacity="1"/>
<stop offset="0.511719" stop-color="rgb(60.098267%, 11.082458%, 51.9104%)" stop-opacity="1"/>
<stop offset="0.515625" stop-color="rgb(59.751892%, 11.167908%, 51.914978%)" stop-opacity="1"/>
<stop offset="0.519531" stop-color="rgb(59.396362%, 11.253357%, 51.890564%)" stop-opacity="1"/>
<stop offset="0.523438" stop-color="rgb(59.039307%, 11.338806%, 51.86615%)" stop-opacity="1"/>
<stop offset="0.527344" stop-color="rgb(58.682251%, 11.419678%, 51.870728%)" stop-opacity="1"/>
<stop offset="0.53125" stop-color="rgb(58.325195%, 11.500549%, 51.873779%)" stop-opacity="1"/>
<stop offset="0.535156" stop-color="rgb(57.96814%, 11.578369%, 51.887512%)" stop-opacity="1"/>
<stop offset="0.539062" stop-color="rgb(57.609558%, 11.657715%, 51.901245%)" stop-opacity="1"/>
<stop offset="0.542969" stop-color="rgb(57.250977%, 11.732483%, 51.942444%)" stop-opacity="1"/>
<stop offset="0.546875" stop-color="rgb(56.892395%, 11.807251%, 51.982117%)" stop-opacity="1"/>
<stop offset="0.550781" stop-color="rgb(56.533813%, 11.880493%, 52.033997%)" stop-opacity="1"/>
<stop offset="0.554688" stop-color="rgb(56.173706%, 11.953735%, 52.084351%)" stop-opacity="1"/>
<stop offset="0.558594" stop-color="rgb(55.870056%, 11.914062%, 52.111816%)" stop-opacity="1"/>
<stop offset="0.5625" stop-color="rgb(55.56488%, 11.872864%, 52.137756%)" stop-opacity="1"/>
<stop offset="0.566406" stop-color="rgb(55.28717%, 11.784363%, 52.153015%)" stop-opacity="1"/>
<stop offset="0.570312" stop-color="rgb(55.007935%, 11.697388%, 52.168274%)" stop-opacity="1"/>
<stop offset="0.574219" stop-color="rgb(54.756165%, 11.720276%, 52.21405%)" stop-opacity="1"/>
<stop offset="0.578125" stop-color="rgb(54.504395%, 11.743164%, 52.261353%)" stop-opacity="1"/>
<stop offset="0.582031" stop-color="rgb(54.266357%, 11.819458%, 52.322388%)" stop-opacity="1"/>
<stop offset="0.585938" stop-color="rgb(54.026794%, 11.895752%, 52.383423%)" stop-opacity="1"/>
<stop offset="0.589844" stop-color="rgb(53.663635%, 11.987305%, 52.415466%)" stop-opacity="1"/>
<stop offset="0.59375" stop-color="rgb(53.29895%, 12.077332%, 52.44751%)" stop-opacity="1"/>
<stop offset="0.597656" stop-color="rgb(52.870178%, 12.176514%, 52.464294%)" stop-opacity="1"/>
<stop offset="0.601562" stop-color="rgb(52.43988%, 12.27417%, 52.479553%)" stop-opacity="1"/>
<stop offset="0.605469" stop-color="rgb(52.055359%, 12.358093%, 52.5177%)" stop-opacity="1"/>
<stop offset="0.609375" stop-color="rgb(51.669312%, 12.442017%, 52.554321%)" stop-opacity="1"/>
<stop offset="0.613281" stop-color="rgb(51.31073%, 12.518311%, 52.604675%)" stop-opacity="1"/>
<stop offset="0.617188" stop-color="rgb(50.949097%, 12.594604%, 52.655029%)" stop-opacity="1"/>
<stop offset="0.621094" stop-color="rgb(50.63324%, 12.661743%, 52.703857%)" stop-opacity="1"/>
<stop offset="0.625" stop-color="rgb(50.315857%, 12.728882%, 52.752686%)" stop-opacity="1"/>
<stop offset="0.628906" stop-color="rgb(50.027466%, 12.788391%, 52.799988%)" stop-opacity="1"/>
<stop offset="0.632812" stop-color="rgb(49.739075%, 12.849426%, 52.845764%)" stop-opacity="1"/>
<stop offset="0.636719" stop-color="rgb(49.411011%, 12.918091%, 52.896118%)" stop-opacity="1"/>
<stop offset="0.640625" stop-color="rgb(49.079895%, 12.988281%, 52.94342%)" stop-opacity="1"/>
<stop offset="0.644531" stop-color="rgb(48.721313%, 13.064575%, 52.993774%)" stop-opacity="1"/>
<stop offset="0.648438" stop-color="rgb(48.361206%, 13.142395%, 53.042603%)" stop-opacity="1"/>
<stop offset="0.652344" stop-color="rgb(47.966003%, 13.192749%, 53.074646%)" stop-opacity="1"/>
<stop offset="0.65625" stop-color="rgb(47.569275%, 13.241577%, 53.105164%)" stop-opacity="1"/>
<stop offset="0.660156" stop-color="rgb(47.146606%, 13.270569%, 53.123474%)" stop-opacity="1"/>
<stop offset="0.664062" stop-color="rgb(46.722412%, 13.299561%, 53.140259%)" stop-opacity="1"/>
<stop offset="0.667969" stop-color="rgb(46.372986%, 13.352966%, 53.134155%)" stop-opacity="1"/>
<stop offset="0.671875" stop-color="rgb(46.022034%, 13.404846%, 53.128052%)" stop-opacity="1"/>
<stop offset="0.675781" stop-color="rgb(45.73822%, 13.476562%, 53.103638%)" stop-opacity="1"/>
<stop offset="0.679688" stop-color="rgb(45.454407%, 13.548279%, 53.077698%)" stop-opacity="1"/>
<stop offset="0.683594" stop-color="rgb(45.152283%, 13.62915%, 53.115845%)" stop-opacity="1"/>
<stop offset="0.6875" stop-color="rgb(44.850159%, 13.711548%, 53.153992%)" stop-opacity="1"/>
<stop offset="0.691406" stop-color="rgb(44.529724%, 13.803101%, 53.256226%)" stop-opacity="1"/>
<stop offset="0.695312" stop-color="rgb(44.206238%, 13.894653%, 53.356934%)" stop-opacity="1"/>
<stop offset="0.699219" stop-color="rgb(43.830872%, 13.986206%, 53.451538%)" stop-opacity="1"/>
<stop offset="0.703125" stop-color="rgb(43.453979%, 14.077759%, 53.544617%)" stop-opacity="1"/>
<stop offset="0.707031" stop-color="rgb(43.019104%, 14.169312%, 53.633118%)" stop-opacity="1"/>
<stop offset="0.710938" stop-color="rgb(42.584229%, 14.260864%, 53.720093%)" stop-opacity="1"/>
<stop offset="0.714844" stop-color="rgb(42.167664%, 14.344788%, 53.733826%)" stop-opacity="1"/>
<stop offset="0.71875" stop-color="rgb(41.751099%, 14.428711%, 53.746033%)" stop-opacity="1"/>
<stop offset="0.722656" stop-color="rgb(41.360474%, 14.503479%, 53.671265%)" stop-opacity="1"/>
<stop offset="0.726562" stop-color="rgb(40.968323%, 14.576721%, 53.594971%)" stop-opacity="1"/>
<stop offset="0.730469" stop-color="rgb(40.621948%, 14.648438%, 53.55835%)" stop-opacity="1"/>
<stop offset="0.734375" stop-color="rgb(40.275574%, 14.718628%, 53.520203%)" stop-opacity="1"/>
<stop offset="0.738281" stop-color="rgb(39.990234%, 14.785767%, 53.529358%)" stop-opacity="1"/>
<stop offset="0.742188" stop-color="rgb(39.703369%, 14.852905%, 53.540039%)" stop-opacity="1"/>
<stop offset="0.746094" stop-color="rgb(39.387512%, 14.926147%, 53.552246%)" stop-opacity="1"/>
<stop offset="0.75" stop-color="rgb(39.073181%, 14.99939%, 53.562927%)" stop-opacity="1"/>
<stop offset="0.753906" stop-color="rgb(38.716125%, 15.083313%, 53.57666%)" stop-opacity="1"/>
<stop offset="0.757812" stop-color="rgb(38.357544%, 15.167236%, 53.588867%)" stop-opacity="1"/>
<stop offset="0.761719" stop-color="rgb(38.012695%, 15.254211%, 53.636169%)" stop-opacity="1"/>
<stop offset="0.765625" stop-color="rgb(37.666321%, 15.342712%, 53.681946%)" stop-opacity="1"/>
<stop offset="0.769531" stop-color="rgb(37.339783%, 15.437317%, 53.782654%)" stop-opacity="1"/>
<stop offset="0.773438" stop-color="rgb(37.010193%, 15.531921%, 53.883362%)" stop-opacity="1"/>
<stop offset="0.777344" stop-color="rgb(36.656189%, 15.632629%, 53.985596%)" stop-opacity="1"/>
<stop offset="0.78125" stop-color="rgb(36.300659%, 15.734863%, 54.086304%)" stop-opacity="1"/>
<stop offset="0.785156" stop-color="rgb(35.899353%, 15.846252%, 54.190063%)" stop-opacity="1"/>
<stop offset="0.789062" stop-color="rgb(35.496521%, 15.959167%, 54.292297%)" stop-opacity="1"/>
<stop offset="0.792969" stop-color="rgb(35.10437%, 16.081238%, 54.388428%)" stop-opacity="1"/>
<stop offset="0.796875" stop-color="rgb(34.710693%, 16.201782%, 54.484558%)" stop-opacity="1"/>
<stop offset="0.800781" stop-color="rgb(34.336853%, 16.340637%, 54.568481%)" stop-opacity="1"/>
<stop offset="0.804688" stop-color="rgb(33.961487%, 16.477966%, 54.649353%)" stop-opacity="1"/>
<stop offset="0.808594" stop-color="rgb(33.581543%, 16.593933%, 54.695129%)" stop-opacity="1"/>
<stop offset="0.8125" stop-color="rgb(33.201599%, 16.7099%, 54.73938%)" stop-opacity="1"/>
<stop offset="0.816406" stop-color="rgb(32.8125%, 16.777039%, 54.699707%)" stop-opacity="1"/>
<stop offset="0.820312" stop-color="rgb(32.421875%, 16.844177%, 54.658508%)" stop-opacity="1"/>
<stop offset="0.824219" stop-color="rgb(32.063293%, 16.911316%, 54.634094%)" stop-opacity="1"/>
<stop offset="0.828125" stop-color="rgb(31.703186%, 16.978455%, 54.606628%)" stop-opacity="1"/>
<stop offset="0.832031" stop-color="rgb(31.416321%, 17.045593%, 54.61731%)" stop-opacity="1"/>
<stop offset="0.835938" stop-color="rgb(31.12793%, 17.111206%, 54.626465%)" stop-opacity="1"/>
<stop offset="0.839844" stop-color="rgb(30.818176%, 17.195129%, 54.666138%)" stop-opacity="1"/>
<stop offset="0.84375" stop-color="rgb(30.505371%, 17.279053%, 54.704285%)" stop-opacity="1"/>
<stop offset="0.847656" stop-color="rgb(30.128479%, 17.410278%, 54.821777%)" stop-opacity="1"/>
<stop offset="0.851562" stop-color="rgb(29.750061%, 17.541504%, 54.937744%)" stop-opacity="1"/>
<stop offset="0.855469" stop-color="rgb(29.376221%, 17.662048%, 55.029297%)" stop-opacity="1"/>
<stop offset="0.859375" stop-color="rgb(29.000854%, 17.781067%, 55.12085%)" stop-opacity="1"/>
<stop offset="0.863281" stop-color="rgb(28.642273%, 17.863464%, 55.133057%)" stop-opacity="1"/>
<stop offset="0.867188" stop-color="rgb(28.28064%, 17.945862%, 55.145264%)" stop-opacity="1"/>
<stop offset="0.871094" stop-color="rgb(27.91748%, 18.040466%, 55.172729%)" stop-opacity="1"/>
<stop offset="0.875" stop-color="rgb(27.554321%, 18.133545%, 55.200195%)" stop-opacity="1"/>
<stop offset="0.878906" stop-color="rgb(27.177429%, 18.266296%, 55.281067%)" stop-opacity="1"/>
<stop offset="0.882812" stop-color="rgb(26.799011%, 18.397522%, 55.361938%)" stop-opacity="1"/>
<stop offset="0.886719" stop-color="rgb(26.425171%, 18.521118%, 55.430603%)" stop-opacity="1"/>
<stop offset="0.890625" stop-color="rgb(26.051331%, 18.643188%, 55.497742%)" stop-opacity="1"/>
<stop offset="0.894531" stop-color="rgb(25.691223%, 18.72406%, 55.509949%)" stop-opacity="1"/>
<stop offset="0.898438" stop-color="rgb(25.32959%, 18.806458%, 55.522156%)" stop-opacity="1"/>
<stop offset="0.902344" stop-color="rgb(24.971008%, 18.901062%, 55.548096%)" stop-opacity="1"/>
<stop offset="0.90625" stop-color="rgb(24.610901%, 18.994141%, 55.575562%)" stop-opacity="1"/>
<stop offset="0.910156" stop-color="rgb(24.258423%, 19.145203%, 55.674744%)" stop-opacity="1"/>
<stop offset="0.914062" stop-color="rgb(23.902893%, 19.296265%, 55.773926%)" stop-opacity="1"/>
<stop offset="0.917969" stop-color="rgb(23.547363%, 19.438171%, 55.860901%)" stop-opacity="1"/>
<stop offset="0.921875" stop-color="rgb(23.190308%, 19.578552%, 55.947876%)" stop-opacity="1"/>
<stop offset="0.925781" stop-color="rgb(22.828674%, 19.659424%, 55.958557%)" stop-opacity="1"/>
<stop offset="0.929688" stop-color="rgb(22.465515%, 19.740295%, 55.970764%)" stop-opacity="1"/>
<stop offset="0.933594" stop-color="rgb(22.113037%, 19.828796%, 55.993652%)" stop-opacity="1"/>
<stop offset="0.9375" stop-color="rgb(21.760559%, 19.915771%, 56.015015%)" stop-opacity="1"/>
<stop offset="0.941406" stop-color="rgb(21.47522%, 20.050049%, 56.112671%)" stop-opacity="1"/>
<stop offset="0.945312" stop-color="rgb(21.188354%, 20.1828%, 56.208801%)" stop-opacity="1"/>
<stop offset="0.949219" stop-color="rgb(20.898438%, 20.315552%, 56.29425%)" stop-opacity="1"/>
<stop offset="0.953125" stop-color="rgb(20.610046%, 20.446777%, 56.378174%)" stop-opacity="1"/>
<stop offset="0.957031" stop-color="rgb(20.307922%, 20.56427%, 56.352234%)" stop-opacity="1"/>
<stop offset="0.960938" stop-color="rgb(20.005798%, 20.680237%, 56.324768%)" stop-opacity="1"/>
<stop offset="0.964844" stop-color="rgb(19.7052%, 20.800781%, 56.29425%)" stop-opacity="1"/>
<stop offset="0.96875" stop-color="rgb(19.404602%, 20.921326%, 56.263733%)" stop-opacity="1"/>
<stop offset="0.972656" stop-color="rgb(19.128418%, 21.099854%, 56.178284%)" stop-opacity="1"/>
<stop offset="0.976562" stop-color="rgb(18.852234%, 21.276855%, 56.091309%)" stop-opacity="1"/>
<stop offset="0.980469" stop-color="rgb(18.569946%, 21.455383%, 56.005859%)" stop-opacity="1"/>
<stop offset="0.984375" stop-color="rgb(18.289185%, 21.632385%, 55.918884%)" stop-opacity="1"/>
<stop offset="0.988281" stop-color="rgb(17.9245%, 21.868896%, 55.831909%)" stop-opacity="1"/>
<stop offset="0.992188" stop-color="rgb(17.559814%, 22.102356%, 55.743408%)" stop-opacity="1"/>
<stop offset="0.996094" stop-color="rgb(17.205811%, 22.32666%, 55.657959%)" stop-opacity="1"/>
<stop offset="1" stop-color="rgb(16.851807%, 22.549438%, 55.569458%)" stop-opacity="1"/>
</linearGradient>
</defs>
<rect x="-400" y="-400" width="4800" height="4800" fill="rgb(100%, 100%, 100%)" fill-opacity="1"/>
<g clip-path="url(#clip-0)">
<g clip-path="url(#clip-1)">
<g clip-path="url(#clip-2)">
<path fill-rule="nonzero" fill="url(#linear-pattern-0)" d="M 1150.578125 1912.53125 L 1150.578125 2526.558594 L 1901.921875 2526.558594 L 1901.921875 1912.53125 Z M 1150.578125 1912.53125 "/>
</g>
</g>
</g>
<path fill-rule="nonzero" fill="rgb(92.974854%, 7.206726%, 48.86322%)" fill-opacity="1" d="M 2846.671875 1717.109375 C 2846.671875 1737.300781 2844.5 1756.371094 2840.019531 1774.398438 C 2836.578125 1788.828125 2831.71875 1802.589844 2825.28125 1815.601562 C 2811.148438 1845.148438 2790.28125 1870.199219 2762.679688 1890.839844 C 2735.160156 1911.640625 2701.660156 1927.789062 2662.238281 1939.460938 C 2622.679688 1951.050781 2577.730469 1956.878906 2527.25 1956.878906 L 2187.46875 1956.878906 L 2187.46875 2122.921875 L 2011.941406 2122.921875 C 2014.480469 2121.351562 2017.101562 2119.480469 2020.089844 2117.378906 C 2023.460938 2114.988281 2026.898438 2112.449219 2030.339844 2109.75 C 2038.339844 2103.398438 2046.269531 2096.371094 2053.820312 2088.890625 C 2102.441406 2040.269531 2127.039062 1980.890625 2127.039062 1912.53125 C 2127.039062 1861.300781 2113.058594 1814.929688 2085.679688 1774.398438 L 2569.28125 1774.398438 C 2601.441406 1774.398438 2627.539062 1748.441406 2627.539062 1716.28125 C 2627.539062 1684.199219 2601.441406 1658.171875 2569.28125 1658.171875 L 1553.851562 1658.171875 C 1547.269531 1658.171875 1541.960938 1660.488281 1537.25 1664.980469 C 1532.761719 1669.539062 1530.441406 1674.769531 1530.441406 1681.578125 C 1530.441406 1687.789062 1532.761719 1693.46875 1537.25 1697.660156 C 1541.960938 1702.148438 1547.269531 1704.390625 1553.851562 1704.390625 L 1877.238281 1704.390625 C 1921.738281 1704.390625 1961.230469 1716.730469 1995.78125 1741.339844 C 1998.699219 1743.429688 2001.621094 1745.601562 2004.539062 1747.921875 C 2011.339844 1753.230469 2017.921875 1759.058594 2024.28125 1765.421875 C 2027.199219 1768.339844 2030.039062 1771.398438 2032.578125 1774.398438 C 2033.851562 1775.589844 2034.898438 1776.789062 2035.949219 1778.058594 C 2039.609375 1782.25 2042.980469 1786.511719 2046.191406 1790.921875 C 2072.289062 1826.148438 2085.308594 1866.761719 2085.308594 1912.53125 C 2085.308594 1969.820312 2064.96875 2018.660156 2024.28125 2059.351562 C 2017.921875 2065.699219 2011.339844 2071.539062 2004.539062 2076.851562 C 2001.621094 2079.171875 1998.699219 2081.328125 1995.78125 2083.429688 C 1993.089844 2085.300781 1990.328125 2087.171875 1987.558594 2088.960938 C 1955.019531 2109.980469 1918.300781 2120.378906 1877.238281 2120.378906 L 1724 2120.378906 C 1727.210938 2120.148438 1730.351562 2119.929688 1733.5 2119.628906 C 1736.640625 2119.328125 1739.628906 2119.03125 1742.769531 2118.5 L 1742.921875 2118.5 C 1754.058594 2116.859375 1764.980469 2114.089844 1775.53125 2110.578125 C 1778.371094 2109.609375 1781.058594 2108.710938 1783.761719 2107.660156 C 1789.21875 2105.488281 1794.519531 2103.171875 1799.609375 2100.480469 C 1802.378906 2099.210938 1805 2097.859375 1807.539062 2096.371094 C 1809.328125 2095.320312 1811.199219 2094.199219 1813.070312 2093.078125 C 1814.941406 2091.878906 1816.890625 2090.761719 1818.761719 2089.640625 C 1824.140625 2085.820312 1829.449219 2082.078125 1834.390625 2077.890625 C 1835.660156 2076.851562 1837.011719 2075.800781 1838.128906 2074.679688 C 1841.871094 2071.761719 1845.460938 2068.398438 1848.898438 2064.960938 L 1848.898438 2064.808594 C 1852.640625 2060.988281 1856.230469 2057.398438 1859.441406 2053.289062 C 1861.089844 2051.191406 1862.960938 2048.949219 1864.53125 2046.859375 C 1871.710938 2036.910156 1878.289062 2025.621094 1883.96875 2013.351562 C 1884.800781 2011.480469 1885.621094 2009.609375 1886.441406 2007.589844 C 1888.011719 2003.929688 1889.511719 2000.191406 1890.851562 1996.300781 C 1893.46875 1988.738281 1895.71875 1980.890625 1897.441406 1972.890625 C 1897.808594 1970.871094 1898.261719 1968.769531 1898.628906 1966.828125 C 1898.929688 1965.261719 1899.308594 1963.539062 1899.460938 1961.890625 C 1899.828125 1960.019531 1900.128906 1958.148438 1900.351562 1956.140625 C 1900.648438 1953.890625 1900.949219 1951.570312 1901.03125 1949.25 C 1901.480469 1944.691406 1901.699219 1940.128906 1901.769531 1935.488281 C 1902 1927.789062 1901.550781 1920.308594 1900.351562 1912.53125 C 1900.351562 1910.890625 1900.351562 1909.539062 1899.898438 1907.820312 L 1899.898438 1907.148438 L 1899.679688 1907.449219 C 1898.929688 1903.179688 1897.058594 1899.441406 1893.851562 1896.148438 C 1889.128906 1891.671875 1883.75 1889.199219 1877.238281 1889.199219 L 1553.851562 1889.199219 C 1496.558594 1889.199219 1447.421875 1869.078125 1406.808594 1828.390625 C 1390.28125 1811.789062 1376.96875 1793.691406 1367.320312 1774.398438 C 1352.890625 1746.421875 1345.78125 1715.460938 1345.78125 1681.578125 C 1345.78125 1673.648438 1346.230469 1665.800781 1347.050781 1658.171875 C 1348.550781 1643.660156 1351.46875 1629.828125 1355.808594 1616.441406 C 1365.53125 1586.070312 1382.5 1558.769531 1406.808594 1534.238281 C 1447.421875 1493.78125 1496.558594 1473.441406 1553.851562 1473.441406 L 2528.289062 1473.441406 C 2578.78125 1473.441406 2623.71875 1479.351562 2663.210938 1491.390625 C 2702.699219 1503.359375 2735.980469 1520.03125 2763.210938 1541.351562 C 2790.359375 1562.738281 2811.148438 1588.320312 2825.28125 1618.160156 C 2839.640625 1647.851562 2846.671875 1680.828125 2846.671875 1717.109375 "/>
</svg>
